<svg width="71" height="24" viewBox="0 0 71 24" fill="none" xmlns="http://www.w3.org/2000/svg">
<g clip-path="url(#clip0)">
<path d="M8.54342 24.0001L2.53578 16.8308H4.31581C5.41299 16.8308 6.30302 16.6925 6.98588 16.4157C7.50384 16.1709 7.95395 15.8065 8.2979 15.3535C8.6624 14.9049 8.85943 14.3469 8.85605 13.7726C8.85267 13.2523 8.68948 12.7454 8.38802 12.3179C8.04796 11.8323 7.5852 11.4422 7.04532 11.1859C6.42493 10.8876 5.74092 10.7394 5.05046 10.7539H1.00127V23.9944H0V9.77474H5.05046C5.70378 9.76914 6.35301 9.8764 6.96859 10.0917C7.54272 10.292 8.07167 10.6002 8.52613 10.9992C8.94119 11.3593 9.27787 11.7982 9.51589 12.2897C9.79794 12.8731 9.91137 13.5215 9.84369 14.1641C9.77601 14.8067 9.52992 15.4186 9.13226 15.9327C8.69017 16.531 8.0944 17.0031 7.40593 17.3006C6.98062 17.4931 6.52782 17.6204 6.06323 17.6779C5.60165 17.7307 5.13729 17.7565 4.67259 17.7553L9.87845 24.0001H8.54342Z" fill="white"/>
<path d="M13.7512 24V9.77466H23.1194V10.7821H14.7525V16.3855H21.2742V17.3929H14.7525V22.9736H23.1194V24.0019L13.7512 24Z" fill="white"/>
<path d="M31.0835 24.0001H26.9231V9.77488H31.0835C32.0626 9.76826 33.0324 9.96094 33.932 10.3408C34.7948 10.7045 35.5684 11.2455 36.2011 11.9275C36.8059 12.5825 37.2791 13.3444 37.5956 14.1726C38.2483 15.91 38.2483 17.8197 37.5956 19.5571C37.2747 20.394 36.7994 21.1654 36.1935 21.8324C35.5659 22.5257 34.7913 23.0751 33.9243 23.4417C33.0265 23.818 32.0594 24.0081 31.0835 24.0001ZM27.9244 23.0172H31.0835C32.8738 23.0172 34.3348 22.3971 35.4665 21.157C35.9904 20.5953 36.3953 19.9367 36.6576 19.2194C37.2058 17.7051 37.2058 16.0511 36.6576 14.5368C36.3952 13.8196 35.9902 13.1609 35.4665 12.5992C34.3246 11.3879 32.8636 10.7823 31.0835 10.7823H27.9244V23.0172Z" fill="white"/>
<path d="M41.4742 24L41.4512 9.77478H46.6109C47.427 9.76787 48.2326 9.95564 48.9587 10.3219C49.6468 10.6598 50.2362 11.1643 50.6717 11.7878C51.085 12.3787 51.3062 13.079 51.3062 13.7962C51.3062 14.5134 51.085 15.2136 50.6717 15.8045C50.2391 16.4334 49.6492 16.9421 48.9587 17.2817C48.2325 17.6475 47.4269 17.8346 46.6109 17.827H42.4754V23.9982L41.4742 24ZM42.4754 16.7912H46.6109C47.2502 16.7974 47.8822 16.6586 48.4581 16.3856C48.9924 16.1381 49.4543 15.7617 49.8008 15.2913C50.1263 14.8568 50.3017 14.3311 50.3014 13.7914C50.304 13.245 50.1285 12.7121 49.8008 12.2708C49.4542 11.8005 48.9923 11.424 48.4581 11.1766C47.8814 10.907 47.2494 10.7714 46.6109 10.7803H42.4543L42.4754 16.7912Z" fill="white"/>
<path d="M54.9585 24V9.77466H55.9598V24H54.9585Z" fill="white"/>
<path d="M70.9999 9.77466L65.8381 16.8873L70.9999 24H69.7763L65.2375 17.7175L60.6992 23.9981H59.4756L64.6414 16.8873L59.4796 9.77466H60.7032L65.2375 16.0553L69.7763 9.77466H70.9999Z" fill="white"/>
<path d="M65.2455 0L60.5515 6.74851L65.2455 13.4951L69.9372 6.74851L65.2455 0Z" fill="url(#paint0_linear)"/>
<path d="M65.2455 0L60.9626 6.158L65.2455 12.316L69.5267 6.158L65.2455 0Z" fill="url(#paint1_linear)"/>
<path d="M65.2456 0L61.3921 5.54107L65.2456 11.0822L69.099 5.54107L65.2456 0Z" fill="url(#paint2_linear)"/>
</g>
<defs>
<linearGradient id="paint0_linear" x1="65.2455" y1="0" x2="65.2455" y2="13.4951" gradientUnits="userSpaceOnUse">
<stop stop-color="#D40000"/>
<stop offset="0.17" stop-color="#D00000"/>
<stop offset="0.35" stop-color="#C30000"/>
<stop offset="0.53" stop-color="#AD0000"/>
<stop offset="0.72" stop-color="#8F0000"/>
<stop offset="0.91" stop-color="#690000"/>
<stop offset="1" stop-color="#540000"/>
</linearGradient>
<linearGradient id="paint1_linear" x1="65.2455" y1="0" x2="65.2455" y2="12.316" gradientUnits="userSpaceOnUse">
<stop stop-color="#D40000"/>
<stop offset="0.38" stop-color="#D20000"/>
<stop offset="0.57" stop-color="#CA0000"/>
<stop offset="0.71" stop-color="#BD0000"/>
<stop offset="0.83" stop-color="#AB0000"/>
<stop offset="0.94" stop-color="#930000"/>
<stop offset="1" stop-color="#820000"/>
</linearGradient>
<linearGradient id="paint2_linear" x1="65.2456" y1="0" x2="65.2456" y2="11.0822" gradientUnits="userSpaceOnUse">
<stop stop-color="#D40000"/>
<stop offset="0.28" stop-color="#D40202"/>
<stop offset="0.42" stop-color="#D60A0A"/>
<stop offset="0.53" stop-color="#D81717"/>
<stop offset="0.62" stop-color="#DB2929"/>
<stop offset="0.7" stop-color="#DF4242"/>
<stop offset="0.77" stop-color="#E45F5F"/>
<stop offset="0.84" stop-color="#EA8383"/>
<stop offset="0.9" stop-color="#F1ACAC"/>
<stop offset="0.96" stop-color="#F9D9D9"/>
<stop offset="1" stop-color="white"/>
</linearGradient>
<clipPath id="clip0">
<rect width="71" height="24" fill="white"/>
</clipPath>
</defs>
</svg>
